<svg viewBox="0 -90 450 205" width="2400" height="600" style="background-color: rgb(255, 255, 255);" xmlns="http://www.w3.org/2000/svg"><path d="M-88.37263332099062,33.09878221015272L-107.4047848949705,31.518845479436262M-107.4047848949705,-79.18559235637407L-107.4047848949705,31.518845479436262M-107.4047848949705,31.518845479436262L-143.73178467381243,58.337718738642245M-88.37263332099062,-77.60565562565762L-88.37263332099062,33.09878221015272M-88.37263332099062,33.09878221015272L-124.69963309983254,59.91765546935871" style="fill:none;stroke:rgb(0,0,0);stroke-width:1;stroke-linecap:round"></path><path d="M-88.37263332099062,33.09878221015272L-107.4047848949705,31.518845479436262L-107.4047848949705,-79.18559235637407z" style="fill:rgb(238,238,238); fill-opacity: 0.31"></path><path d="M33.343474870486176,43.20293408725754L-50.712176096805145,36.22513076999787M-50.712176096805145,-74.47930706581248L-50.712176096805145,36.22513076999787M-50.712176096805145,36.22513076999787L-87.03917587564706,63.04400402920384" style="fill:none;stroke:rgb(0,0,0);stroke-width:1;stroke-linecap:round"></path><path d="M-88.37263332099062,-77.60565562565763L-88.37263332099062,33.09878221015272L-107.4047848949705,-79.18559235637407z" style="fill:rgb(238,238,238); fill-opacity: 0.31"></path><path d="M-88.37263332099062,-77.60565562565762L-107.4047848949705,-79.18559235637407M-107.4047848949705,-79.18559235637407L-143.73178467381243,-52.366719097168094M-88.37263332099062,-77.60565562565762L-124.69963309983254,-50.78678236645163" style="fill:none;stroke:rgb(0,0,0);stroke-width:1;stroke-linecap:round"></path><path d="M33.343474870486176,43.20293408725754L-50.71217609680514,36.22513076999787L-50.71217609680514,-74.47930706581248zM-143.73178467381243,58.337718738642245L-107.4047848949705,31.518845479436262L-88.37263332099062,33.09878221015272z" style="fill:rgb(238,238,238); fill-opacity: 0.31"></path><path d="M33.343474870486176,-67.5015037485528L33.343474870486176,43.20293408725754M33.343474870486176,43.20293408725754L-2.983524908355748,70.02180734646352M33.343474870486176,-67.5015037485528L-50.712176096805145,-74.47930706581248M-50.712176096805145,-74.47930706581248L-87.03917587564706,-47.660433806606484" style="fill:none;stroke:rgb(0,0,0);stroke-width:1;stroke-linecap:round"></path><path d="M-124.69963309983254,59.91765546935869L-88.37263332099062,33.09878221015272L-88.37263332099062,-77.60565562565763zM-107.4047848949705,-79.18559235637407L-107.4047848949705,31.518845479436262L-143.73178467381243,-52.366719097168094zM33.343474870486176,-67.5015037485528L33.343474870486176,43.20293408725754L-50.71217609680514,-74.47930706581248z" style="fill:rgb(238,238,238); fill-opacity: 0.31"></path><path d="M22.583305755525704,19.049577313202064L-61.47234521176562,12.071773995942388M-61.47234521176562,7.736028631483695L-61.47234521176562,12.071773995942388M-61.47234521176562,12.071773995942388L-62.89509414554737,13.122136634394755M143.05163445887848,52.31025704647447L71.00393198790599,46.329282638239626M71.00393198790599,-64.37515519757072L71.00393198790599,46.329282638239626M71.00393198790599,46.329282638239626L34.67693220906407,73.1481558974456M22.583305755525704,14.713831948743367L-61.47234521176562,7.736028631483695M-61.47234521176562,7.736028631483695L-62.89509414554737,8.78639126993606" style="fill:none;stroke:rgb(0,0,0);stroke-width:1;stroke-linecap:round"></path><path d="M-61.47234521176562,7.736028631483697L-61.47234521176562,12.071773995942392L-62.89509414554736,8.786391269936063zM-61.47234521176562,12.071773995942392L-62.89509414554736,13.122136634394758L-62.89509414554736,8.786391269936063z" style="fill:rgb(153,221,255); fill-opacity: 0.66"></path><path d="M-62.89509414554737,8.78639126993606L-62.89509414554737,13.122136634394755M-62.89509414554737,13.122136634394755L21.16055682174396,20.099939951654427" style="fill:none;stroke:rgb(0,0,0);stroke-width:1;stroke-linecap:round"></path><path d="M-87.03917587564706,63.04400402920384L-50.71217609680514,36.22513076999787L33.343474870486176,43.20293408725754z" style="fill:rgb(238,238,238); fill-opacity: 0.31"></path><path d="M-62.89509414554737,8.78639126993606L21.16055682174396,15.764194587195734M-104.499215049885,-21.70206270513429L-123.53136662386488,-23.28199943585074M-123.53136662386488,-27.61774480030943L-123.53136662386488,-23.28199943585074M-123.53136662386488,-23.28199943585074L-124.95411555764663,-22.231636797398377M-104.499215049885,-26.03780806959298L-123.53136662386488,-27.61774480030943M-123.53136662386488,-27.61774480030943L-124.95411555764663,-26.56738216185707" style="fill:none;stroke:rgb(0,0,0);stroke-width:1;stroke-linecap:round"></path><path d="M-123.53136662386488,-27.61774480030943L-123.53136662386488,-23.281999435850743L-124.95411555764663,-26.567382161857072zM-104.499215049885,-21.702062705134285L-123.53136662386488,-23.281999435850743L-123.53136662386488,-27.61774480030943zM-123.53136662386488,-23.281999435850743L-124.95411555764663,-22.231636797398373L-124.95411555764663,-26.567382161857072zM-124.95411555764663,-22.231636797398373L-123.53136662386488,-23.281999435850743L-104.499215049885,-21.702062705134285zM22.583305755525696,19.049577313202064L-61.47234521176562,12.071773995942392L-61.47234521176562,7.736028631483697z" style="fill:rgb(153,221,255); fill-opacity: 0.66"></path><path d="M-124.69963309983254,-50.78678236645163L-88.37263332099062,-77.60565562565763L-107.4047848949705,-79.18559235637407z" style="fill:rgb(238,238,238); fill-opacity: 0.31"></path><path d="M-124.95411555764663,-26.56738216185707L-124.95411555764663,-22.231636797398377M-124.95411555764663,-22.231636797398377L-105.92196398366674,-20.651700066681922" style="fill:none;stroke:rgb(0,0,0);stroke-width:1;stroke-linecap:round"></path><path d="M-62.89509414554736,13.122136634394758L-61.47234521176562,12.071773995942392L22.583305755525696,19.049577313202064zM-104.499215049885,-26.037808069592977L-104.499215049885,-21.702062705134285L-123.53136662386488,-27.61774480030943z" style="fill:rgb(153,221,255); fill-opacity: 0.66"></path><path d="M-124.95411555764663,-26.56738216185707L-105.92196398366674,-24.987445431140618" style="fill:none;stroke:rgb(0,0,0);stroke-width:1;stroke-linecap:round"></path><path d="M-124.95411555764663,-26.567382161857072L-105.92196398366674,-24.987445431140614L-123.53136662386488,-27.61774480030943z" style="fill:rgb(153,221,255); fill-opacity: 0.66"></path><path d="M-104.49921445020004,-26.03780748005969L-104.49921445020004,-21.702062849644122M-104.49921445020004,-21.702062849644122L-105.92196344419975,-20.651700166735072M-104.49921445020004,-21.702062849644122L-67.55013188521292,-20.218405936876685M-104.499215049885,-26.03780806959298L-104.499215049885,-21.70206270513429M-104.499215049885,-21.70206270513429L-105.92196398366674,-20.651700066681922" style="fill:none;stroke:rgb(0,0,0);stroke-width:1;stroke-linecap:round"></path><path d="M-105.92196398366674,-24.987445431140614L-104.499215049885,-26.037808069592977L-123.53136662386488,-27.61774480030943zM-105.92196398366674,-20.651700066681922L-124.95411555764663,-22.231636797398373L-104.499215049885,-21.702062705134285zM-124.95411555764663,-26.567382161857072L-124.95411555764663,-22.231636797398373L-105.92196398366674,-24.987445431140614zM-62.89509414554736,8.786391269936063L21.160556821743956,15.764194587195734L-61.47234521176562,7.736028631483697z" style="fill:rgb(153,221,255); fill-opacity: 0.66"></path><path d="M-104.49921445020004,-26.03780748005969L-105.92196344419975,-24.987444797150644M-104.49921445020004,-26.03780748005969L-67.55013188521292,-20.218405936876685M-104.499215049885,-26.03780806959298L-105.92196398366674,-24.987445431140618" style="fill:none;stroke:rgb(0,0,0);stroke-width:1;stroke-linecap:round"></path><path d="M-104.49921541455639,-26.03780804844538L-104.49921541455639,-21.702062764995873L-105.92196432175547,-20.65170014616851z" style="fill:rgb(255,187,187); fill-opacity: 0.66"></path><path d="M-105.92196398366674,-20.651700066681922L-104.499215049885,-21.702062705134285L-104.499215049885,-26.037808069592977zM-62.89509414554736,8.786391269936063L-62.89509414554736,13.122136634394758L21.160556821743956,15.764194587195734zM-124.95411555764663,-22.231636797398373L-105.92196398366674,-20.651700066681922L-105.92196398366674,-24.987445431140614z" style="fill:rgb(153,221,255); fill-opacity: 0.66"></path><path d="M-50.71217609680514,-74.47930706581248L-50.71217609680514,36.22513076999787L-87.03917587564706,-47.660433806606484z" style="fill:rgb(238,238,238); fill-opacity: 0.31"></path><path d="M-104.49921541455639,-26.03780804844538L-105.92196432175547,-20.65170014616851L-105.92196432175547,-24.98744542961802z" style="fill:rgb(255,187,187); fill-opacity: 0.66"></path><path d="M-105.92196398366674,-24.987445431140614L-105.92196398366674,-20.651700066681922L-104.499215049885,-26.037808069592977z" style="fill:rgb(153,221,255); fill-opacity: 0.66"></path><path d="M-105.92196398366674,-24.987445431140618L-105.92196398366674,-20.651700066681922M-105.92196344419975,-20.651700166735072L-105.92196344419975,-24.987444797150644M-105.92196344419975,-20.651700166735072L-67.55013188521292,-20.218405936876685M33.343474870486176,-67.5015037485528L-2.983524908355748,-40.68263048934682" style="fill:none;stroke:rgb(0,0,0);stroke-width:1;stroke-linecap:round"></path><path d="M-124.69963309983254,59.91765546935869L-143.73178467381243,58.337718738642245L-88.37263332099062,33.09878221015272z" style="fill:rgb(238,238,238); fill-opacity: 0.31"></path><path d="M-105.92196344419975,-24.987444797150644L-67.55013188521292,-20.218405936876685" style="fill:none;stroke:rgb(0,0,0);stroke-width:1;stroke-linecap:round"></path><path d="M-104.49921541455639,-21.702062764995873L-104.49921541455639,-26.03780804844538L-67.55013271584201,-20.21840554342815z" style="fill:rgb(255,187,187); fill-opacity: 0.66"></path><path d="M143.05163445887845,52.31025704647447L71.00393198790597,46.32928263823963L71.00393198790597,-64.37515519757072z" style="fill:rgb(238,238,238); fill-opacity: 0.31"></path><path d="M-105.92196432175547,-20.65170014616851L-104.49921541455639,-21.702062764995873L-67.55013271584201,-20.21840554342815z" style="fill:rgb(255,187,187); fill-opacity: 0.66"></path><path d="M22.583305755525696,14.713831948743367L22.583305755525696,19.049577313202064L-61.47234521176562,7.736028631483697z" style="fill:rgb(153,221,255); fill-opacity: 0.66"></path><path d="M-104.49921541455639,-26.03780804844538L-105.92196432175547,-24.98744542961802L-67.55013271584201,-20.21840554342815zM-105.92196432175547,-24.98744542961802L-105.92196432175547,-20.65170014616851L-67.55013271584201,-20.21840554342815z" style="fill:rgb(255,187,187); fill-opacity: 0.66"></path><path d="M21.160556821743956,15.764194587195734L22.583305755525696,14.713831948743367L-61.47234521176562,7.736028631483697zM21.160556821743956,20.09993995165443L-62.89509414554736,13.122136634394758L22.583305755525696,19.049577313202064z" style="fill:rgb(153,221,255); fill-opacity: 0.66"></path><path d="M-107.4047848949705,31.518845479436262L-143.73178467381243,58.337718738642245L-143.73178467381243,-52.366719097168094z" style="fill:rgb(238,238,238); fill-opacity: 0.31"></path><path d="M-62.89509414554736,13.122136634394758L21.160556821743956,20.09993995165443L21.160556821743956,15.764194587195734z" style="fill:rgb(153,221,255); fill-opacity: 0.66"></path><path d="M143.05163445887848,-58.39418078933588L143.05163445887848,52.31025704647447M143.05163445887848,52.31025704647447L106.72463468003654,79.12913030568045M22.583305755525704,14.713831948743367L22.583305755525704,19.049577313202064M22.583305755525704,19.049577313202064L21.16055682174396,20.099939951654427M22.583306135690908,14.713832792721178L22.583306135690908,19.049577423136746M22.583306135690908,19.049577423136746L21.16055744278103,20.099939883762367M22.583306135690908,19.049577423136746L59.53238870067802,20.53323433590418M22.583305755525704,14.713831948743367L21.16055682174396,15.764194587195734M22.583306135690908,14.713832792721178L21.16055744278103,15.7641952533468M22.583306135690908,14.713832792721178L59.53238870067802,20.53323433590418M143.05163445887848,-58.39418078933588L71.00393198790599,-64.37515519757072M71.00393198790599,-64.37515519757072L34.67693220906407,-37.556281938364734" style="fill:none;stroke:rgb(0,0,0);stroke-width:1;stroke-linecap:round"></path><path d="M21.160556821743956,20.09993995165443L22.583305755525696,19.049577313202064L22.583305755525696,14.713831948743367z" style="fill:rgb(153,221,255); fill-opacity: 0.66"></path><path d="M22.58330616548597,14.71383203419631L22.58330616548597,19.04957731764582L21.160557258286907,20.09993993647318z" style="fill:rgb(255,187,187); fill-opacity: 0.66"></path><path d="M21.160556821743956,15.764194587195734L21.160556821743956,20.09993995165443L22.583305755525696,14.713831948743367z" style="fill:rgb(153,221,255); fill-opacity: 0.66"></path><path d="M22.58330616548597,14.71383203419631L21.160557258286907,20.09993993647318L21.160557258286907,15.764194653023669z" style="fill:rgb(255,187,187); fill-opacity: 0.66"></path><path d="M21.16055744278103,20.099939883762367L21.16055744278103,15.7641952533468M21.16055744278103,20.099939883762367L59.53238870067802,20.53323433590418M21.16055682174396,15.764194587195734L21.16055682174396,20.099939951654427" style="fill:none;stroke:rgb(0,0,0);stroke-width:1;stroke-linecap:round"></path><path d="M-2.9835249083557476,70.02180734646352L33.343474870486176,43.20293408725754L33.343474870486176,-67.5015037485528z" style="fill:rgb(238,238,238); fill-opacity: 0.31"></path><path d="M21.16055744278103,15.7641952533468L59.53238870067802,20.53323433590418" style="fill:none;stroke:rgb(0,0,0);stroke-width:1;stroke-linecap:round"></path><path d="M22.58330616548597,19.04957731764582L22.58330616548597,14.71383203419631L59.53238886420036,20.533234539213538zM21.160557258286907,20.09993993647318L22.58330616548597,19.04957731764582L59.53238886420036,20.533234539213538zM22.58330616548597,14.71383203419631L21.160557258286907,15.764194653023669L59.53238886420036,20.533234539213538z" style="fill:rgb(255,187,187); fill-opacity: 0.66"></path><path d="M143.05163445887845,-58.39418078933588L143.05163445887845,52.31025704647447L71.00393198790597,-64.37515519757072z" style="fill:rgb(238,238,238); fill-opacity: 0.31"></path><path d="M21.160557258286907,15.764194653023669L21.160557258286907,20.09993993647318L59.53238886420036,20.533234539213538z" style="fill:rgb(255,187,187); fill-opacity: 0.66"></path><path d="M240.7518437881572,60.42075095032978L180.71208981350355,55.43660545111977M180.71208981350355,-55.26783238469058L180.71208981350355,55.43660545111977M180.71208981350355,55.43660545111977L144.38509003466163,82.25547871032575" style="fill:none;stroke:rgb(0,0,0);stroke-width:1;stroke-linecap:round"></path><path d="M-124.69963309983254,-50.78678236645163L-124.69963309983254,59.91765546935869L-88.37263332099062,-77.60565562565763zM-50.71217609680514,36.22513076999787L-87.03917587564706,63.04400402920384L-87.03917587564706,-47.660433806606484zM-2.9835249083557476,-40.68263048934682L33.343474870486176,-67.5015037485528L-50.71217609680514,-74.47930706581248zM-143.73178467381243,-52.366719097168094L-124.69963309983254,-50.78678236645163L-107.4047848949705,-79.18559235637407zM34.67693220906404,73.1481558974456L71.00393198790597,46.32928263823963L143.05163445887845,52.31025704647447z" style="fill:rgb(238,238,238); fill-opacity: 0.31"></path><path d="M-143.73178467381243,-52.366719097168094L-143.73178467381243,58.337718738642245M-143.73178467381243,58.337718738642245L-124.69963309983254,59.91765546935871" style="fill:none;stroke:rgb(0,0,0);stroke-width:1;stroke-linecap:round"></path><path d="M-2.9835249083557476,70.02180734646352L-87.03917587564706,63.04400402920384L33.343474870486176,43.20293408725754zM240.75184378815715,60.42075095032977L180.71208981350355,55.43660545111977L180.71208981350355,-55.26783238469058z" style="fill:rgb(238,238,238); fill-opacity: 0.31"></path><path d="M143.05163445887848,-58.39418078933588L106.72463468003654,-31.575307530129884M-124.69963309983254,-50.78678236645163L-124.69963309983254,59.91765546935871" style="fill:none;stroke:rgb(0,0,0);stroke-width:1;stroke-linecap:round"></path><path d="M71.00393198790597,-64.37515519757072L71.00393198790597,46.32928263823963L34.67693220906404,-37.55628193836473z" style="fill:rgb(238,238,238); fill-opacity: 0.31"></path><path d="M240.7518437881572,-50.28368688548056L240.7518437881572,60.42075095032978M240.7518437881572,60.42075095032978L204.42484400931528,87.23962420953576" style="fill:none;stroke:rgb(0,0,0);stroke-width:1;stroke-linecap:round"></path><path d="M-143.73178467381243,58.337718738642245L-124.69963309983254,59.91765546935869L-124.69963309983254,-50.78678236645163z" style="fill:rgb(238,238,238); fill-opacity: 0.31"></path><path d="M240.7518437881572,-50.28368688548056L180.71208981350355,-55.26783238469058M180.71208981350355,-55.26783238469058L144.38509003466163,-28.44895912548459M-87.03917587564706,-47.660433806606484L-87.03917587564706,63.04400402920384M-87.03917587564706,63.04400402920384L-2.983524908355748,70.02180734646352" style="fill:none;stroke:rgb(0,0,0);stroke-width:1;stroke-linecap:round"></path><path d="M240.75184378815715,-50.283686885480556L240.75184378815715,60.42075095032977L180.71208981350355,-55.26783238469058zM-87.03917587564706,-47.660433806606484L-2.9835249083557476,-40.68263048934682L-50.71217609680514,-74.47930706581248zM106.72463468003653,79.12913030568045L143.05163445887845,52.31025704647447L143.05163445887845,-58.39418078933588zM-143.73178467381243,-52.366719097168094L-143.73178467381243,58.337718738642245L-124.69963309983254,-50.78678236645163z" style="fill:rgb(238,238,238); fill-opacity: 0.31"></path><path d="M-143.73178467381243,-52.366719097168094L-124.69963309983254,-50.78678236645163" style="fill:none;stroke:rgb(0,0,0);stroke-width:1;stroke-linecap:round"></path><path d="M-2.9835249083557476,-40.68263048934682L-2.9835249083557476,70.02180734646352L33.343474870486176,-67.5015037485528zM144.38509003466166,82.25547871032575L180.71208981350355,55.43660545111977L240.75184378815715,60.42075095032977zM106.72463468003653,-31.575307530129884L143.05163445887845,-58.39418078933588L71.00393198790597,-64.37515519757072zM71.00393198790597,46.32928263823963L34.67693220906404,73.1481558974456L34.67693220906404,-37.55628193836473z" style="fill:rgb(238,238,238); fill-opacity: 0.31"></path><path d="M240.7518437881572,-50.28368688548056L204.42484400931528,-23.464813626274577" style="fill:none;stroke:rgb(0,0,0);stroke-width:1;stroke-linecap:round"></path><path d="M106.72463468003653,79.12913030568045L34.67693220906404,73.1481558974456L143.05163445887845,52.31025704647447zM180.71208981350355,-55.26783238469058L180.71208981350355,55.43660545111977L144.38509003466166,-28.44895912548459z" style="fill:rgb(238,238,238); fill-opacity: 0.31"></path><path d="M-2.983524908355748,-40.68263048934682L-2.983524908355748,70.02180734646352" style="fill:none;stroke:rgb(0,0,0);stroke-width:1;stroke-linecap:round"></path><path d="M-87.03917587564706,63.04400402920384L-2.9835249083557476,70.02180734646352L-2.9835249083557476,-40.68263048934682zM-87.03917587564706,-47.660433806606484L-87.03917587564706,63.04400402920384L-2.9835249083557476,-40.68263048934682z" style="fill:rgb(238,238,238); fill-opacity: 0.31"></path><path d="M-87.03917587564706,-47.660433806606484L-2.983524908355748,-40.68263048934682" style="fill:none;stroke:rgb(0,0,0);stroke-width:1;stroke-linecap:round"></path><path d="M204.42484400931528,87.23962420953576L240.75184378815715,60.42075095032977L240.75184378815715,-50.283686885480556z" style="fill:rgb(238,238,238); fill-opacity: 0.31"></path><path d="M116.48002155796964,-22.752165019676408L44.432319086997154,-28.733139427911254M44.432319086997154,-33.06888479236994L44.432319086997154,-28.733139427911254M44.432319086997154,-28.733139427911254L43.00957015321542,-27.682776789458885M116.48002155796964,-27.087910384135103L44.432319086997154,-33.06888479236994M44.432319086997154,-33.06888479236994L43.00957015321542,-32.01852215391758" style="fill:none;stroke:rgb(0,0,0);stroke-width:1;stroke-linecap:round"></path><path d="M44.43231908699714,-33.06888479236994L44.43231908699714,-28.733139427911254L43.0095701532154,-32.01852215391757zM44.43231908699714,-28.733139427911254L43.0095701532154,-27.682776789458885L43.0095701532154,-32.01852215391757z" style="fill:rgb(153,221,255); fill-opacity: 0.66"></path><path d="M34.67693220906407,-37.556281938364734L34.67693220906407,73.1481558974456M34.67693220906407,73.1481558974456L106.72463468003654,79.12913030568045M43.00957015321542,-32.01852215391758L43.00957015321542,-27.682776789458885M43.00957015321542,-27.682776789458885L115.0572726241879,-21.70180238122404" style="fill:none;stroke:rgb(0,0,0);stroke-width:1;stroke-linecap:round"></path><path d="M34.67693220906404,-37.55628193836473L106.72463468003653,-31.575307530129884L71.00393198790597,-64.37515519757072z" style="fill:rgb(238,238,238); fill-opacity: 0.31"></path><path d="M43.00957015321542,-32.01852215391758L115.0572726241879,-26.037547745682737M296.3812781925805,101.38091960448816L274.7147593668318,99.58229327543137M274.7147593668318,-59.93880758226646L274.7147593668318,99.58229327543137M274.7147593668318,99.58229327543137L267.4493591220172,104.94606814066466" style="fill:none;stroke:rgb(0,0,0);stroke-width:1;stroke-linecap:round"></path><path d="M116.48002155796962,-22.752165019676415L44.43231908699714,-28.733139427911254L44.43231908699714,-33.06888479236994zM43.0095701532154,-27.682776789458885L44.43231908699714,-28.733139427911254L116.48002155796962,-22.752165019676415z" style="fill:rgb(153,221,255); fill-opacity: 0.66"></path><path d="M204.42484400931528,-23.46481362627458L240.75184378815715,-50.283686885480556L180.71208981350355,-55.26783238469058zM106.72463468003653,-31.575307530129884L106.72463468003653,79.12913030568045L143.05163445887845,-58.39418078933588z" style="fill:rgb(238,238,238); fill-opacity: 0.31"></path><path d="M43.0095701532154,-32.01852215391757L115.05727262418789,-26.037547745682737L44.43231908699714,-33.06888479236994zM43.0095701532154,-32.01852215391757L43.0095701532154,-27.682776789458885L115.05727262418789,-26.037547745682737z" style="fill:rgb(153,221,255); fill-opacity: 0.66"></path><path d="M296.3812781925805,-58.140181253209676L296.3812781925805,101.38091960448816M296.3812781925805,101.38091960448816L289.1158779477659,106.74469446972147" style="fill:none;stroke:rgb(0,0,0);stroke-width:1;stroke-linecap:round"></path><path d="M180.71208981350355,55.43660545111977L144.38509003466166,82.25547871032575L144.38509003466166,-28.44895912548459zM267.4493591220172,104.94606814066466L274.7147593668318,99.58229327543137L296.38127819258057,101.38091960448816z" style="fill:rgb(238,238,238); fill-opacity: 0.31"></path><path d="M116.48002155796962,-27.087910384135103L116.48002155796962,-22.752165019676415L44.43231908699714,-33.06888479236994z" style="fill:rgb(153,221,255); fill-opacity: 0.66"></path><path d="M204.42484400931528,87.23962420953576L144.38509003466166,82.25547871032575L240.75184378815715,60.42075095032977z" style="fill:rgb(238,238,238); fill-opacity: 0.31"></path><path d="M115.05727262418789,-26.037547745682737L116.48002155796962,-27.087910384135103L44.43231908699714,-33.06888479236994zM115.05727262418789,-21.701802381224045L43.0095701532154,-27.682776789458885L116.48002155796962,-22.752165019676415zM43.0095701532154,-27.682776789458885L115.05727262418789,-21.701802381224045L115.05727262418789,-26.037547745682737z" style="fill:rgb(153,221,255); fill-opacity: 0.66"></path><path d="M296.38127819258057,101.38091960448816L274.7147593668318,99.58229327543137L274.7147593668318,-59.93880758226646z" style="fill:rgb(238,238,238); fill-opacity: 0.31"></path><path d="M116.48002155796964,-27.087910384135103L116.48002155796964,-22.752165019676408M116.48002155796964,-22.752165019676408L115.0572726241879,-21.70180238122404M116.48002182376172,-27.087909641693678L116.48002182376172,-22.752163543191855M116.48002182376172,-22.752163543191855L115.0572726491081,-21.70180072691275M116.48002182376172,-22.752163543191855L153.4291043887488,-21.268506630424426" style="fill:none;stroke:rgb(0,0,0);stroke-width:1;stroke-linecap:round"></path><path d="M289.1158779477659,106.74469446972147L267.4493591220172,104.94606814066466L296.38127819258057,101.38091960448816z" style="fill:rgb(238,238,238); fill-opacity: 0.31"></path><path d="M233.79820660361221,19.40854520587647L258.1519688954419,21.43025060405142M116.48002155796964,-27.087910384135103L115.0572726241879,-26.037547745682737M116.48002182376172,-27.087909641693678L115.0572726491081,-26.037546825414573M116.48002182376172,-27.087909641693678L153.4291043887488,-21.268506630424426" style="fill:none;stroke:rgb(0,0,0);stroke-width:1;stroke-linecap:round"></path><path d="M116.48002108653256,-27.08791037185056L116.48002108653256,-22.75216508840105L115.05727217933351,-21.701802469573686z" style="fill:rgb(255,187,187); fill-opacity: 0.66"></path><path d="M115.05727262418789,-21.701802381224045L116.48002155796962,-22.752165019676415L116.48002155796962,-27.087910384135103z" style="fill:rgb(153,221,255); fill-opacity: 0.66"></path><path d="M267.4493591220172,-54.57503271703317L267.4493591220172,104.94606814066466M267.4493591220172,104.94606814066466L289.1158779477659,106.74469446972147" style="fill:none;stroke:rgb(0,0,0);stroke-width:1;stroke-linecap:round"></path><path d="M116.48002108653256,-27.08791037185056L115.05727217933351,-21.701802469573686L115.05727217933351,-26.0375477530232z" style="fill:rgb(255,187,187); fill-opacity: 0.66"></path><path d="M115.05727262418789,-26.037547745682737L115.05727262418789,-21.701802381224045L116.48002155796962,-27.087910384135103z" style="fill:rgb(153,221,255); fill-opacity: 0.66"></path><path d="M106.72463468003654,-31.575307530129884L106.72463468003654,79.12913030568045M115.0572726241879,-26.037547745682737L115.0572726241879,-21.70180238122404M115.0572726491081,-21.70180072691275L115.0572726491081,-26.037546825414573M115.0572726491081,-21.70180072691275L153.4291043887488,-21.268506630424426M115.0572726491081,-26.037546825414573L153.4291043887488,-21.268506630424426" style="fill:none;stroke:rgb(0,0,0);stroke-width:1;stroke-linecap:round"></path><path d="M116.48002108653256,-22.75216508840105L116.48002108653256,-27.08791037185056L153.42910378524692,-21.268507866833332z" style="fill:rgb(255,187,187); fill-opacity: 0.66"></path><path d="M34.67693220906404,73.1481558974456L106.72463468003653,79.12913030568045L106.72463468003653,-31.575307530129884z" style="fill:rgb(238,238,238); fill-opacity: 0.31"></path><path d="M115.05727217933351,-21.701802469573686L116.48002108653256,-22.75216508840105L153.42910378524692,-21.268507866833332zM116.48002108653256,-27.08791037185056L115.05727217933351,-26.0375477530232L153.42910378524692,-21.268507866833332z" style="fill:rgb(255,187,187); fill-opacity: 0.66"></path><path d="M34.67693220906404,-37.55628193836473L34.67693220906404,73.1481558974456L106.72463468003653,-31.575307530129884z" style="fill:rgb(238,238,238); fill-opacity: 0.31"></path><path d="M355.7082542906862,81.7641844145336L334.04173546493746,79.9655580854768M334.04173546493746,-30.472122606510162L334.04173546493746,79.9655580854768M334.04173546493746,79.9655580854768L326.77633522012286,85.32933295071011" style="fill:none;stroke:rgb(0,0,0);stroke-width:1;stroke-linecap:round"></path><path d="M115.05727217933351,-26.0375477530232L115.05727217933351,-21.701802469573686L153.42910378524692,-21.268507866833332z" style="fill:rgb(255,187,187); fill-opacity: 0.66"></path><path d="M34.67693220906407,-37.556281938364734L106.72463468003654,-31.575307530129884" style="fill:none;stroke:rgb(0,0,0);stroke-width:1;stroke-linecap:round"></path><path d="M274.7147593668318,99.58229327543137L267.4493591220172,104.94606814066466L267.4493591220172,-54.57503271703317zM289.1158779477659,106.74469446972147L296.38127819258057,101.38091960448816L296.38127819258057,-58.140181253209676z" style="fill:rgb(238,238,238); fill-opacity: 0.31"></path><path d="M289.1158779477659,-52.776406387976365L289.1158779477659,106.74469446972147" style="fill:none;stroke:rgb(0,0,0);stroke-width:1;stroke-linecap:round"></path><path d="M258.3375418494462,20.51487350484984L257.96639594143744,20.788876729122638L270.70545461287986,22.47236678867768zM257.8517055367399,21.949236862591146L258.1519688954418,22.392375608322574L270.70545461287986,22.47236678867768zM257.96639594143744,20.788876729122638L257.8517055367399,21.949236862591146L270.70545461287986,22.47236678867768z" style="fill:rgb(0,0,0)"></path><path d="M296.38127819258057,-58.140181253209676L296.38127819258057,101.38091960448816L274.7147593668318,-59.93880758226646z" style="fill:rgb(238,238,238); fill-opacity: 0.31"></path><path d="M355.7082542906862,-28.67349627745337L355.7082542906862,81.7641844145336M355.7082542906862,81.7641844145336L348.4428540458716,87.1279592797669" style="fill:none;stroke:rgb(0,0,0);stroke-width:1;stroke-linecap:round"></path><path d="M144.38509003466166,-28.44895912548459L204.42484400931528,-23.46481362627458L180.71208981350355,-55.26783238469058z" style="fill:rgb(238,238,238); fill-opacity: 0.31"></path><path d="M144.38509003466163,-28.44895912548459L144.38509003466163,82.25547871032575M144.38509003466163,82.25547871032575L204.42484400931528,87.23962420953576" style="fill:none;stroke:rgb(0,0,0);stroke-width:1;stroke-linecap:round"></path><path d="M274.7147593668318,-59.93880758226646L274.7147593668318,99.58229327543137L267.4493591220172,-54.57503271703317zM326.77633522012286,85.32933295071008L334.04173546493746,79.9655580854768L355.7082542906862,81.7641844145336zM355.7082542906862,81.7641844145336L334.04173546493746,79.9655580854768L334.04173546493746,-30.47212260651017zM204.42484400931528,-23.46481362627458L204.42484400931528,87.23962420953576L240.75184378815715,-50.283686885480556z" style="fill:rgb(238,238,238); fill-opacity: 0.31"></path><path d="M293.1251827017179,24.333520098777324L317.47894499354754,26.355225496952272" style="fill:none;stroke:rgb(0,0,0);stroke-width:1;stroke-linecap:round"></path><path d="M267.4493591220172,104.94606814066466L289.1158779477659,106.74469446972147L289.1158779477659,-52.77640638797636z" style="fill:rgb(238,238,238); fill-opacity: 0.31"></path><path d="M296.3812781925805,-58.140181253209676L274.7147593668318,-59.93880758226646M274.7147593668318,-59.93880758226646L267.4493591220172,-54.57503271703317" style="fill:none;stroke:rgb(0,0,0);stroke-width:1;stroke-linecap:round"></path><path d="M348.4428540458716,87.12795927976688L326.77633522012286,85.32933295071008L355.7082542906862,81.7641844145336z" style="fill:rgb(238,238,238); fill-opacity: 0.31"></path><path d="M415.0352303887919,80.55373325480686L393.3687115630431,78.75510692575004M393.3687115630431,-19.4117216609817L393.3687115630431,78.75510692575004M393.3687115630431,78.75510692575004L386.1033113182285,84.11888179098334M326.77633522012286,-25.108347741276877L326.77633522012286,85.32933295071011M326.77633522012286,85.32933295071011L348.4428540458716,87.1279592797669" style="fill:none;stroke:rgb(0,0,0);stroke-width:1;stroke-linecap:round"></path><path d="M317.66451794755193,25.439848397750694L317.29337203954316,25.71385162202349L330.0324307109855,27.39734168157854zM317.1786816348456,26.874211755492L317.47894499354754,27.317350501223434L330.0324307109855,27.39734168157854z" style="fill:rgb(0,0,0)"></path><path d="M296.3812781925805,-58.140181253209676L289.1158779477659,-52.776406387976365" style="fill:none;stroke:rgb(0,0,0);stroke-width:1;stroke-linecap:round"></path><path d="M317.29337203954316,25.71385162202349L317.1786816348456,26.874211755492L330.0324307109855,27.39734168157854z" style="fill:rgb(0,0,0)"></path><path d="M289.1158779477659,-52.77640638797636L289.1158779477659,106.74469446972147L296.38127819258057,-58.140181253209676zM334.04173546493746,79.9655580854768L326.77633522012286,85.32933295071008L326.77633522012286,-25.108347741276877zM348.4428540458716,87.12795927976688L355.7082542906862,81.7641844145336L355.7082542906862,-28.67349627745337zM355.7082542906862,-28.67349627745337L355.7082542906862,81.7641844145336L334.04173546493746,-30.47212260651017zM267.4493591220172,-54.57503271703317L267.4493591220172,104.94606814066466L289.1158779477659,-52.77640638797636zM334.04173546493746,-30.47212260651017L334.04173546493746,79.9655580854768L326.77633522012286,-25.108347741276877zM289.1158779477659,-52.77640638797636L296.38127819258057,-58.140181253209676L274.7147593668318,-59.93880758226646z" style="fill:rgb(238,238,238); fill-opacity: 0.31"></path><path d="M415.0352303887919,-17.6130953319249L415.0352303887919,80.55373325480686M415.0352303887919,80.55373325480686L407.7698301439773,85.91750812004013M204.42484400931528,-23.464813626274577L204.42484400931528,87.23962420953576M348.4428540458716,-23.30972141222007L348.4428540458716,87.1279592797669M355.7082542906862,-28.67349627745337L334.04173546493746,-30.472122606510162M334.04173546493746,-30.472122606510162L326.77633522012286,-25.108347741276877" style="fill:none;stroke:rgb(0,0,0);stroke-width:1;stroke-linecap:round"></path><path d="M386.1033113182285,84.11888179098332L393.3687115630431,78.75510692575004L415.0352303887919,80.55373325480683zM144.38509003466166,82.25547871032575L204.42484400931528,87.23962420953576L204.42484400931528,-23.46481362627458zM415.0352303887919,80.55373325480683L393.3687115630431,78.75510692575004L393.3687115630431,-19.411721660981705zM267.4493591220172,-54.57503271703317L289.1158779477659,-52.77640638797636L274.7147593668318,-59.93880758226646z" style="fill:rgb(238,238,238); fill-opacity: 0.31"></path><path d="M352.45215879982356,29.258494991678177L376.8059210916532,31.28020038985312" style="fill:none;stroke:rgb(0,0,0);stroke-width:1;stroke-linecap:round"></path><path d="M144.38509003466166,-28.44895912548459L144.38509003466166,82.25547871032575L204.42484400931528,-23.46481362627458zM326.77633522012286,85.32933295071008L348.4428540458716,87.12795927976688L348.4428540458716,-23.30972141222008z" style="fill:rgb(238,238,238); fill-opacity: 0.31"></path><path d="M355.7082542906862,-28.67349627745337L348.4428540458716,-23.30972141222007M267.4493591220172,-54.57503271703317L289.1158779477659,-52.776406387976365M144.38509003466163,-28.44895912548459L204.42484400931528,-23.464813626274577" style="fill:none;stroke:rgb(0,0,0);stroke-width:1;stroke-linecap:round"></path><path d="M407.7698301439773,85.91750812004013L386.1033113182285,84.11888179098332L415.0352303887919,80.55373325480683zM348.4428540458716,-23.30972141222008L348.4428540458716,87.12795927976688L355.7082542906862,-28.67349627745337zM348.4428540458716,-23.30972141222008L355.7082542906862,-28.67349627745337L334.04173546493746,-30.47212260651017z" style="fill:rgb(238,238,238); fill-opacity: 0.31"></path><path d="M376.9914940456576,30.364823290651554L376.62034813764893,30.638826514924347L389.3594068090912,32.322316574479395zM376.50565773295136,31.79918664839286L376.80592109165326,32.242325394124286L389.3594068090912,32.322316574479395zM376.62034813764893,30.638826514924347L376.50565773295136,31.79918664839286L389.3594068090912,32.322316574479395z" style="fill:rgb(0,0,0)"></path><path d="M474.36220648689755,79.34328209508008L452.6956876611488,77.5446557660233M452.6956876611488,-8.351320715453241L452.6956876611488,77.5446557660233M452.6956876611488,77.5446557660233L445.4302874163342,82.90843063125658M386.1033113182285,-14.047946795748414L386.1033113182285,84.11888179098334M386.1033113182285,84.11888179098334L407.7698301439773,85.91750812004013" style="fill:none;stroke:rgb(0,0,0);stroke-width:1;stroke-linecap:round"></path><path d="M326.77633522012286,-25.108347741276877L326.77633522012286,85.32933295071008L348.4428540458716,-23.30972141222008zM415.0352303887919,-17.613095331924907L415.0352303887919,80.55373325480683L393.3687115630431,-19.411721660981705zM393.3687115630431,78.75510692575004L386.1033113182285,84.11888179098332L386.1033113182285,-14.047946795748418zM407.7698301439773,85.91750812004013L415.0352303887919,80.55373325480683L415.0352303887919,-17.613095331924907zM326.77633522012286,-25.108347741276877L348.4428540458716,-23.30972141222008L334.04173546493746,-30.47212260651017zM393.3687115630431,-19.411721660981705L393.3687115630431,78.75510692575004L386.1033113182285,-14.047946795748418z" style="fill:rgb(238,238,238); fill-opacity: 0.31"></path><path d="M415.0352303887919,-17.6130953319249L393.3687115630431,-19.4117216609817M393.3687115630431,-19.4117216609817L386.1033113182285,-14.047946795748414M474.36220648689755,-6.552694386396438L474.36220648689755,79.34328209508008M474.36220648689755,79.34328209508008L467.09680624208295,84.70705696031338M407.7698301439773,-12.24932046669161L407.7698301439773,85.91750812004013M326.77633522012286,-25.108347741276877L348.4428540458716,-23.30972141222007" style="fill:none;stroke:rgb(0,0,0);stroke-width:1;stroke-linecap:round"></path><path d="M445.4302874163342,82.90843063125658L452.6956876611488,77.54465576602328L474.36220648689755,79.34328209508008z" style="fill:rgb(238,238,238); fill-opacity: 0.31"></path><path d="M411.77913489792917,34.183469884579026L436.13289718975886,36.20517528275397" style="fill:none;stroke:rgb(0,0,0);stroke-width:1;stroke-linecap:round"></path><path d="M474.36220648689755,79.34328209508008L452.6956876611488,77.54465576602328L452.6956876611488,-8.351320715453243z" style="fill:rgb(238,238,238); fill-opacity: 0.31"></path><path d="M415.0352303887919,-17.6130953319249L407.7698301439773,-12.24932046669161" style="fill:none;stroke:rgb(0,0,0);stroke-width:1;stroke-linecap:round"></path><path d="M386.1033113182285,84.11888179098332L407.7698301439773,85.91750812004013L407.7698301439773,-12.24932046669162zM407.7698301439773,-12.24932046669162L415.0352303887919,-17.613095331924907L393.3687115630431,-19.411721660981705zM407.7698301439773,-12.24932046669162L407.7698301439773,85.91750812004013L415.0352303887919,-17.613095331924907zM467.09680624208295,84.70705696031337L445.4302874163342,82.90843063125658L474.36220648689755,79.34328209508008z" style="fill:rgb(238,238,238); fill-opacity: 0.31"></path><path d="M436.3184701437632,35.289798183552406L435.9473242357545,35.5638014078252L448.6863829071968,37.247291467380236zM435.8326338310569,36.72416154129371L436.13289718975886,37.16730028702514L448.6863829071968,37.247291467380236zM435.9473242357545,35.5638014078252L435.8326338310569,36.72416154129371L448.6863829071968,37.247291467380236z" style="fill:rgb(0,0,0)"></path><path d="M386.1033113182285,-14.047946795748418L386.1033113182285,84.11888179098332L407.7698301439773,-12.24932046669162zM474.36220648689755,-6.552694386396447L474.36220648689755,79.34328209508008L452.6956876611488,-8.351320715453243zM386.1033113182285,-14.047946795748418L407.7698301439773,-12.24932046669162L393.3687115630431,-19.411721660981705z" style="fill:rgb(238,238,238); fill-opacity: 0.31"></path><path d="M533.6891825850032,78.13283093535333L512.0226637592544,76.33420460629652M512.0226637592544,2.709080230075225L512.0226637592544,76.33420460629652M512.0226637592544,76.33420460629652L504.7572635144398,81.69797947152982M445.4302874163342,-2.987545850219954L445.4302874163342,82.90843063125658M445.4302874163342,82.90843063125658L467.09680624208295,84.70705696031338" style="fill:none;stroke:rgb(0,0,0);stroke-width:1;stroke-linecap:round"></path><path d="M452.6956876611488,77.54465576602328L445.4302874163342,82.90843063125658L445.4302874163342,-2.9875458502199566zM467.09680624208295,84.70705696031337L474.36220648689755,79.34328209508008L474.36220648689755,-6.552694386396447zM452.6956876611488,-8.351320715453243L452.6956876611488,77.54465576602328L445.4302874163342,-2.9875458502199566z" style="fill:rgb(238,238,238); fill-opacity: 0.31"></path><path d="M474.36220648689755,-6.552694386396438L452.6956876611488,-8.351320715453241M452.6956876611488,-8.351320715453241L445.4302874163342,-2.987545850219954M386.1033113182285,-14.047946795748414L407.7698301439773,-12.24932046669161M533.6891825850032,4.5077065591320284L533.6891825850032,78.13283093535333M533.6891825850032,78.13283093535333L526.4237823401886,83.49660580058662M467.09680624208295,-1.188919521163151L467.09680624208295,84.70705696031338M471.10611099603483,39.10844477747988L495.4598732878645,41.130150175654826M474.36220648689755,-6.552694386396438L467.09680624208295,-1.188919521163151" style="fill:none;stroke:rgb(0,0,0);stroke-width:1;stroke-linecap:round"></path><path d="M533.6891825850032,78.13283093535333L512.0226637592546,76.33420460629652L512.0226637592546,2.7090802300752226zM504.7572635144399,81.6979794715298L512.0226637592546,76.33420460629652L533.6891825850032,78.13283093535333zM445.4302874163342,82.90843063125658L467.09680624208295,84.70705696031337L467.09680624208295,-1.188919521163159zM467.09680624208295,-1.188919521163159L474.36220648689755,-6.552694386396447L452.6956876611488,-8.351320715453243zM467.09680624208295,-1.188919521163159L467.09680624208295,84.70705696031337L474.36220648689755,-6.552694386396447zM445.4302874163342,-2.9875458502199566L445.4302874163342,82.90843063125658L467.09680624208295,-1.188919521163159z" style="fill:rgb(238,238,238); fill-opacity: 0.31"></path><path d="M495.64544624186885,40.21477307645326L495.27430033386014,40.48877630072605L508.01335900530245,42.17226636028109z" style="fill:rgb(0,0,0)"></path><path d="M533.6891825850032,4.50770655913202L533.6891825850032,78.13283093535333L512.0226637592546,2.7090802300752226z" style="fill:rgb(238,238,238); fill-opacity: 0.31"></path><path d="M495.15960992916257,41.64913643419457L495.4598732878645,42.09227517992599L508.01335900530245,42.17226636028109z" style="fill:rgb(0,0,0)"></path><path d="M445.4302874163342,-2.9875458502199566L467.09680624208295,-1.188919521163159L452.6956876611488,-8.351320715453243z" style="fill:rgb(238,238,238); fill-opacity: 0.31"></path><path d="M495.27430033386014,40.48877630072605L495.15960992916257,41.64913643419457L508.01335900530245,42.17226636028109z" style="fill:rgb(0,0,0)"></path><path d="M526.4237823401886,83.49660580058661L504.7572635144399,81.6979794715298L533.6891825850032,78.13283093535333z" style="fill:rgb(238,238,238); fill-opacity: 0.31"></path><path d="M533.6891825850032,4.5077065591320284L512.0226637592544,2.709080230075225M512.0226637592544,2.709080230075225L504.7572635144398,8.072855095308512" style="fill:none;stroke:rgb(0,0,0);stroke-width:1;stroke-linecap:round"></path><path d="M512.0226637592546,2.7090802300752226L512.0226637592546,76.33420460629652L504.7572635144399,8.07285509530851zM512.0226637592546,76.33420460629652L504.7572635144399,81.6979794715298L504.7572635144399,8.07285509530851zM526.4237823401886,83.49660580058661L533.6891825850032,78.13283093535333L533.6891825850032,4.50770655913202z" style="fill:rgb(238,238,238); fill-opacity: 0.31"></path><path d="M504.7572635144398,8.072855095308512L504.7572635144398,81.69797947152982M504.7572635144398,81.69797947152982L526.4237823401886,83.49660580058662M445.4302874163342,-2.987545850219954L467.09680624208295,-1.188919521163151M593.0161586831089,66.62669091003569L571.3496398573601,64.82806458097889M571.3496398573601,24.065170041194573L571.3496398573601,64.82806458097889M571.3496398573601,64.82806458097889L564.0842396125455,70.19183944621219M533.6891825850032,4.5077065591320284L526.4237823401886,9.871481424365316M530.4330870941405,44.03341967038074L554.7868493859702,46.05512506855568M526.4237823401886,9.871481424365316L526.4237823401886,83.49660580058662" style="fill:none;stroke:rgb(0,0,0);stroke-width:1;stroke-linecap:round"></path><path d="M593.0161586831089,66.62669091003569L571.3496398573602,64.82806458097888L571.3496398573602,24.065170041194566zM526.4237823401886,9.871481424365308L533.6891825850032,4.50770655913202L512.0226637592546,2.7090802300752226z" style="fill:rgb(238,238,238); fill-opacity: 0.31"></path><path d="M593.0161586831089,25.863796370251368L593.0161586831089,66.62669091003569M593.0161586831089,66.62669091003569L585.7507584382943,71.99046577526899" style="fill:none;stroke:rgb(0,0,0);stroke-width:1;stroke-linecap:round"></path><path d="M504.7572635144399,81.6979794715298L526.4237823401886,83.49660580058661L526.4237823401886,9.871481424365308zM564.0842396125455,70.19183944621217L571.3496398573602,64.82806458097888L593.0161586831089,66.62669091003569zM526.4237823401886,9.871481424365308L526.4237823401886,83.49660580058661L533.6891825850032,4.50770655913202z" style="fill:rgb(238,238,238); fill-opacity: 0.31"></path><path d="M593.0161586831089,25.863796370251368L571.3496398573601,24.065170041194573M571.3496398573601,24.065170041194573L564.0842396125455,29.42894490642786" style="fill:none;stroke:rgb(0,0,0);stroke-width:1;stroke-linecap:round"></path><path d="M593.0161586831089,25.863796370251364L593.0161586831089,66.62669091003569L571.3496398573602,24.065170041194566zM504.7572635144399,8.07285509530851L526.4237823401886,9.871481424365308L512.0226637592546,2.7090802300752226zM504.7572635144399,8.07285509530851L504.7572635144399,81.6979794715298L526.4237823401886,9.871481424365308z" style="fill:rgb(238,238,238); fill-opacity: 0.31"></path><path d="M554.9724223399746,45.13974796935411L554.6012764319659,45.41375119362691L567.3403351034082,47.09724125318194zM554.4865860272683,46.574111327095416L554.7868493859702,47.01725007282685L567.3403351034082,47.09724125318194zM554.6012764319659,45.41375119362691L554.4865860272683,46.574111327095416L567.3403351034082,47.09724125318194z" style="fill:rgb(0,0,0)"></path><path d="M571.3496398573602,24.065170041194566L571.3496398573602,64.82806458097888L564.0842396125455,29.42894490642786z" style="fill:rgb(238,238,238); fill-opacity: 0.31"></path><path d="M504.7572635144398,8.072855095308512L526.4237823401886,9.871481424365316M593.0161586831089,25.863796370251368L585.7507584382943,31.227571235484657" style="fill:none;stroke:rgb(0,0,0);stroke-width:1;stroke-linecap:round"></path><path d="M571.3496398573602,64.82806458097888L564.0842396125455,70.19183944621217L564.0842396125455,29.42894490642786zM585.7507584382943,71.99046577526897L593.0161586831089,66.62669091003569L593.0161586831089,25.863796370251364zM585.7507584382943,71.99046577526897L564.0842396125455,70.19183944621217L593.0161586831089,66.62669091003569z" style="fill:rgb(238,238,238); fill-opacity: 0.31"></path><path d="M564.0842396125455,29.42894490642786L564.0842396125455,70.19183944621219M564.0842396125455,70.19183944621219L585.7507584382943,71.99046577526899" style="fill:none;stroke:rgb(0,0,0);stroke-width:1;stroke-linecap:round"></path><path d="M585.7507584382943,31.22757123548465L593.0161586831089,25.863796370251364L571.3496398573602,24.065170041194566zM564.0842396125455,29.42894490642786L585.7507584382943,31.22757123548465L571.3496398573602,24.065170041194566zM585.7507584382943,31.22757123548465L585.7507584382943,71.99046577526897L593.0161586831089,25.863796370251364z" style="fill:rgb(238,238,238); fill-opacity: 0.31"></path><path d="M585.7507584382943,31.227571235484657L585.7507584382943,71.99046577526899" style="fill:none;stroke:rgb(0,0,0);stroke-width:1;stroke-linecap:round"></path><path d="M564.0842396125455,70.19183944621217L585.7507584382943,71.99046577526897L585.7507584382943,31.22757123548465zM564.0842396125455,29.42894490642786L564.0842396125455,70.19183944621217L585.7507584382943,31.22757123548465z" style="fill:rgb(238,238,238); fill-opacity: 0.31"></path><path d="M564.0842396125455,29.42894490642786L585.7507584382943,31.227571235484657" style="fill:none;stroke:rgb(0,0,0);stroke-width:1;stroke-linecap:round"></path></svg>